<?xml version="1.0" encoding="iso-8859-1"?><!DOCTYPE svg PUBLIC "-//W3C//DTD SVG 1.1//EN" "http://www.w3.org/Graphics/SVG/1.1/DTD/svg11.dtd"><svg viewBox="0 0 625.778 625.778" xmlns="http://www.w3.org/2000/svg" xmlns:xlink="http://www.w3.org/1999/xlink"><style>:root>svg{display:none}:root>svg:target{display:block}</style><svg viewBox="0 0 451.846 451.847" id="arrow-right" xmlns="http://www.w3.org/2000/svg"><path d="M345.441 248.292L151.154 442.573c-12.359 12.365-32.397 12.365-44.75 0-12.354-12.354-12.354-32.391 0-44.744L278.318 225.92 106.409 54.017c-12.354-12.359-12.354-32.394 0-44.748 12.354-12.359 32.391-12.359 44.75 0l194.287 194.284c6.177 6.18 9.262 14.271 9.262 22.366 0 8.099-3.091 16.196-9.267 22.373z"/></svg><svg viewBox="0 0 329.269 329" id="close" xmlns="http://www.w3.org/2000/svg"><path d="M194.8 164.77L323.013 36.555c8.343-8.34 8.343-21.825 0-30.164-8.34-8.34-21.825-8.34-30.164 0L164.633 134.605 36.422 6.391c-8.344-8.34-21.824-8.34-30.164 0-8.344 8.34-8.344 21.824 0 30.164l128.21 128.215L6.259 292.984c-8.344 8.34-8.344 21.825 0 30.164a21.266 21.266 0 0015.082 6.25c5.46 0 10.922-2.09 15.082-6.25l128.21-128.214 128.216 128.214a21.273 21.273 0 0015.082 6.25c5.46 0 10.922-2.09 15.082-6.25 8.343-8.34 8.343-21.824 0-30.164zm0 0"/></svg><svg xmlns:svgjs="http://svgjs.com/svgjs" viewBox="0.238 0 12.525 22" id="down" xmlns="http://www.w3.org/2000/svg"><svg width="13" height="22" viewBox="2.015 1.01 11.96 21.008"><path paint-order="stroke fill markers" fill-rule="evenodd" d="M2.307 16.722l4.983 5.003c.39.39 1.02.39 1.41 0l4.982-5.003a1.002 1.002 0 00-.704-1.708H8.99V2.011c0-.553-.446-1-.996-1a.998.998 0 00-.997 1v13.003H3.012a1.002 1.002 0 00-.705 1.708zm8.265.293l-2.577 2.588-2.578-2.588h5.155z"/></svg></svg><svg viewBox="0 0 511.626 511.626" id="heart" xmlns="http://www.w3.org/2000/svg"><path d="M475.366 71.949c-24.175-23.606-57.575-35.404-100.215-35.404-11.8 0-23.843 2.046-36.117 6.136-12.279 4.093-23.702 9.615-34.256 16.562-10.568 6.945-19.65 13.467-27.269 19.556a263.828 263.828 0 00-21.696 19.414 264.184 264.184 0 00-21.698-19.414c-7.616-6.089-16.702-12.607-27.268-19.556-10.564-6.95-21.985-12.468-34.261-16.562-12.275-4.089-24.316-6.136-36.116-6.136-42.637 0-76.039 11.801-100.211 35.404C12.087 95.55 0 128.286 0 170.16c0 12.753 2.24 25.891 6.711 39.398 4.471 13.514 9.566 25.031 15.275 34.546 5.708 9.514 12.181 18.792 19.414 27.834 7.233 9.041 12.519 15.272 15.846 18.698 3.33 3.426 5.948 5.903 7.851 7.427L243.25 469.938c3.427 3.426 7.614 5.144 12.562 5.144s9.138-1.718 12.563-5.144l177.87-171.31c43.588-43.58 65.38-86.406 65.38-128.472.001-41.877-12.085-74.61-36.259-98.207zm-53.961 199.846L255.813 431.391 89.938 271.507C54.344 235.922 36.55 202.133 36.55 170.156c0-15.415 2.046-29.026 6.136-40.824 4.093-11.8 9.327-21.177 15.703-28.124 6.377-6.949 14.132-12.607 23.268-16.988 9.141-4.377 18.086-7.328 26.84-8.85 8.754-1.52 18.079-2.281 27.978-2.281 9.896 0 20.557 2.424 31.977 7.279 11.418 4.853 21.934 10.944 31.545 18.271 9.613 7.332 17.845 14.183 24.7 20.557 6.851 6.38 12.559 12.229 17.128 17.559 3.424 4.189 8.091 6.283 13.989 6.283 5.9 0 10.562-2.094 13.99-6.283 4.568-5.33 10.28-11.182 17.131-17.559 6.852-6.374 15.085-13.222 24.694-20.557 9.613-7.327 20.129-13.418 31.553-18.271 11.416-4.854 22.08-7.279 31.977-7.279s19.219.761 27.977 2.281c8.757 1.521 17.702 4.473 26.84 8.85 9.137 4.38 16.892 10.042 23.267 16.988 6.376 6.947 11.612 16.324 15.705 28.124 4.086 11.798 6.132 25.409 6.132 40.824-.002 31.977-17.89 65.86-53.675 101.639z"/></svg><svg viewBox="0 0 512 512" id="left-arrow" xmlns="http://www.w3.org/2000/svg"><path d="M492 236H68.442l70.164-69.824c7.829-7.792 7.859-20.455.067-28.284-7.792-7.83-20.456-7.859-28.285-.068l-104.504 104-.018.019c-7.809 7.792-7.834 20.496-.002 28.314l.018.019 104.504 104c7.828 7.79 20.492 7.763 28.285-.068 7.792-7.829 7.762-20.492-.067-28.284L68.442 276H492c11.046 0 20-8.954 20-20s-8.954-20-20-20z"/></svg><svg viewBox="0 0 117 22" id="logo" xmlns="http://www.w3.org/2000/svg"><path d="M1 1h17L8 18h9v4H0L10 6H1zm32 21c-6.075 0-11-4.925-11-11 0-.666.07-1.315.183-1.949l5.726 5.09c1.057 1.71 2.933 2.859 5.09 2.859a6 6 0 100-12c-2.243 0-4.176 1.246-5.205 3.07l-3.822-3.345A10.98 10.98 0 0133 0c6.075 0 11 4.925 11 11s-4.925 11-11 11zm17 0V12l5 3v7zm0-22l14 11V0h5v22L50 6zm41 4H81v5h9v4h-9v5h10v4H76V0h15zm26 18h-6l-5-6.875L101 22h-6l8-11-8-11h6l5 6.875L111 0h6l-8 11z"/></svg><svg viewBox="0 -192 469.333 469" id="minus" xmlns="http://www.w3.org/2000/svg"><path d="M437.332.168H32c-17.664 0-32 14.336-32 32V53.5c0 17.664 14.336 32 32 32h405.332c17.664 0 32-14.336 32-32V32.168c0-17.664-14.336-32-32-32zm0 0"/></svg><svg viewBox="0 0 469.333 469.333" id="plus" xmlns="http://www.w3.org/2000/svg"><path d="M437.332 192h-160V32c0-17.664-14.336-32-32-32H224c-17.664 0-32 14.336-32 32v160H32c-17.664 0-32 14.336-32 32v21.332c0 17.664 14.336 32 32 32h160v160c0 17.664 14.336 32 32 32h21.332c17.664 0 32-14.336 32-32v-160h160c17.664 0 32-14.336 32-32V224c0-17.664-14.336-32-32-32zm0 0"/></svg><svg viewBox="0 0 512 512" id="right-arrow" xmlns="http://www.w3.org/2000/svg"><path d="M506.134 241.843l-.018-.019-104.504-104c-7.829-7.791-20.492-7.762-28.285.068-7.792 7.829-7.762 20.492.067 28.284L443.558 236H20c-11.046 0-20 8.954-20 20s8.954 20 20 20h423.557l-70.162 69.824c-7.829 7.792-7.859 20.455-.067 28.284 7.793 7.831 20.457 7.858 28.285.068l104.504-104 .018-.019c7.833-7.818 7.808-20.522-.001-28.314z"/></svg><svg viewBox="0 0 512.005 512.005" id="search" xmlns="http://www.w3.org/2000/svg"><path d="M505.749 475.587l-145.6-145.6c28.203-34.837 45.184-79.104 45.184-127.317C405.333 90.926 314.41.003 202.666.003S0 90.925 0 202.669s90.923 202.667 202.667 202.667c48.213 0 92.48-16.981 127.317-45.184l145.6 145.6c4.16 4.16 9.621 6.251 15.083 6.251s10.923-2.091 15.083-6.251c8.341-8.341 8.341-21.824-.001-30.165zM202.667 362.669c-88.235 0-160-71.765-160-160s71.765-160 160-160 160 71.765 160 160-71.766 160-160 160z"/></svg></svg>